<?xml version="1.0" encoding="UTF-8"?>
<svg id="_图层_1" data-name="图层 1" xmlns="http://www.w3.org/2000/svg" viewBox="0 0 487.74 489.86">
  <defs>
    <style>
      .cls-1 {
        fill: #fff;
      }
    </style>
  </defs>
  <path class="cls-1" d="M104.52,36.63c16.87,14.8,32.37,36.66,49.41,50.68,10.7,8.81,17.06,5.36,29.23,5.2,28.73-.36,57.5-1.23,86.3-.75,11.96.2,33.45,3.97,43.87-1.07,2.95-1.43,7-5.11,9.46-7.41,18.86-17.67,36.53-38.54,55.37-56.77,6.49-6.28,18.32-19.17,25.19-23.53,7.47-4.75,17.14-3.55,22.44,3.7,4.16,5.7,5.61,23.22,6.65,30.85,4.46,32.7,6.31,65.76,10.2,98.53,19.72,47.67,41.42,96.37,44.64,148.84,13.44,219-267.1,214.24-417.31,198.34-15.23-1.61-32.1-3.5-47.12-6.12-14.04-2.45-23.92-5.44-20.41-22.41,16.25-56.44,35.98-112.03,51.94-168.53,2.19-7.76,5.84-16.19-.5-23.07-14.01-12.37-33.79-21.82-47.44-34.13-11.18-10.08-5.22-21.23-1.15-33.14,6.78-19.82,16.21-38.58,23.59-58.15,3.73-26.77,5.29-53.84,8.57-80.67,1.63-13.31,3.08-31.22,6.39-43.85C47.12.61,59.75-3.9,70.27,3.75c12.1,8.8,22.37,23.47,34.25,32.88ZM79.05,47.84c-5.22-4.51-11.98-8.93-14.39,1.17-2.24,9.38-2.99,24.1-4.08,34.17-2.37,22.03-1.78,50.25-9.73,70.51-6.08,15.5-16.36,33.38-20.47,49.27-1.41,5.45-2.21,8,2.08,12.56,2.47,2.62,9.6,7.36,12.93,9.73,80.77,57.61,182.7,105.04,275.21,140.82,26.45,10.23,57.12,22.53,84.36,29.63,11.82,3.08,17.24,4.18,26.09-5.05,17.93-18.72,31.25-55.94,30.75-81.72-.08-3.97-2.04-8.68-6.2-9.68-4.62-1.1-28.4,9.35-34.69,11.53-36.92,12.81-74.4,24.13-111.94,35.04-14.65,3.47-21.18-16.05-9.37-23.61,44.66-14.58,91.88-26.09,135.35-43.87,11.53-4.72,22.89-9.21,21.35-23.98-2.02-19.32-14.36-51.12-21.73-69.76s-16.97-34.09-19.31-54.18c-2.89-24.85-3.24-50.16-6.77-74.97-1.24-8.75-2.46-17.51-13.09-9.37-14.87,11.38-31.17,32.75-44.98,46.51-8.94,8.91-23.33,25.08-35.99,26.25-16.1,1.49-36.06-1.31-52.49-1.57-17.78-.28-35.59.56-53.25.82-15.86.23-35.79,2.06-51.05.75-6.58-.57-12.32-4.11-17.24-8.26-21.43-18.05-40.07-44.32-61.38-62.72ZM42.85,425.02c-7.14,6.53-15.48,24.73-1.8,28.64,9.39,2.68,28.21,3.8,38.65,4.84,85.92,8.52,208.91,11.92,288.85-23.11,8.92-3.91,24.93-10.22,10.91-20.18-83.18-28.77-164.7-62.8-242.41-104.05-12.99-6.9-28.34-17.61-41.2-23.29-16.03-7.09-17.77,8.88-21.56,20.49-6.56,20.07-15.73,45.87-20.24,66-1.83,8.18-1.31,15.55,8.94,14.98l123.21-33.57c9.3-1.08,15.5,7.63,13.34,16.36-1.42,5.76-5.61,7.65-10.76,9.48-39.01,13.86-84.43,21.34-124.45,33.78-6.4,1.99-16.58,5.15-21.48,9.64Z"/>
  <circle class="cls-1" cx="299.51" cy="184.82" r="17.53"/>
  <circle class="cls-1" cx="171.39" cy="184.8" r="17.46"/>
</svg>